<svg width="60" height="12" viewBox="0 0 60 12" fill="none" xmlns="http://www.w3.org/2000/svg">
<g clip-path="url(#clip0_44_79)">
<path d="M21.8569 0.385559H24.1139L27.9515 7.32744L31.789 0.385559H33.9971V11.7924H32.1557V3.04992L28.7907 9.10368H27.0634L23.6983 3.04992V11.7924H21.8569V0.385559ZM39.9365 11.996C39.0837 11.996 38.3341 11.8073 37.6878 11.4299C37.0414 11.0524 36.5375 10.5294 36.1764 9.86148C35.8151 9.1932 35.6346 8.42748 35.6346 7.56372C35.6346 6.68928 35.811 5.91516 36.1642 5.24172C36.5172 4.56816 37.0074 4.04124 37.6348 3.66096C38.2623 3.2808 38.9833 3.0906 39.798 3.0906C40.6073 3.0906 41.304 3.28212 41.8879 3.66504C42.4717 4.04796 42.9213 4.58436 43.2364 5.27424C43.5513 5.96412 43.7089 6.77328 43.7089 7.7022V8.2074H37.4597C37.5737 8.90268 37.8547 9.44988 38.3029 9.849C38.7511 10.2484 39.3173 10.4479 40.0018 10.4479C40.5503 10.4479 41.0229 10.3664 41.4195 10.2035C41.8158 10.0405 42.1879 9.79344 42.5357 9.46212L43.5133 10.6597C42.541 11.5507 41.3488 11.996 39.9365 11.996ZM41.281 5.22936C40.8952 4.83564 40.39 4.6386 39.7655 4.6386C39.1571 4.6386 38.6478 4.83972 38.2378 5.2416C37.8276 5.6436 37.5682 6.18408 37.4597 6.86304H41.9409C41.8865 6.16776 41.6665 5.62332 41.281 5.22936ZM45.9415 4.80168H44.2468V3.29436H45.9415V0.801119H47.7178V3.29436H50.2924V4.80168H47.7178V8.62296C47.7178 9.25836 47.8264 9.71196 48.0437 9.98352C48.2608 10.2552 48.633 10.3909 49.1599 10.3909C49.3933 10.3909 49.5917 10.3816 49.7547 10.3625C49.9345 10.341 50.1138 10.3152 50.2924 10.285V11.776C50.0914 11.8357 49.8647 11.8847 49.6121 11.9227C49.3491 11.9614 49.0835 11.9805 48.8177 11.9797C46.9002 11.9797 45.9415 10.9315 45.9415 8.83476V4.80168ZM59.5483 11.7924H57.8047V10.6028C57.4951 11.0483 57.1013 11.3918 56.6233 11.6334C56.1454 11.8751 55.6021 11.996 54.9939 11.996C54.2442 11.996 53.5802 11.8045 53.0017 11.4216C52.4232 11.0387 51.9683 10.5119 51.637 9.84096C51.3057 9.17016 51.1399 8.403 51.1399 7.53936C51.1399 6.6702 51.3083 5.9016 51.6451 5.23344C51.9819 4.5654 52.4477 4.04124 53.0425 3.66096C53.6373 3.2808 54.3203 3.0906 55.0915 3.0906C55.6728 3.0906 56.1942 3.2034 56.656 3.42876C57.1115 3.64909 57.5059 3.97782 57.8047 4.38612V3.29436H59.5483V11.7924ZM57.7722 6.2682C57.582 5.78484 57.282 5.40336 56.8719 5.1234C56.4617 4.8438 55.9878 4.70388 55.4501 4.70388C54.6895 4.70388 54.084 4.95924 53.6332 5.46972C53.1822 5.98032 52.957 6.6702 52.957 7.53924C52.957 8.41392 53.1741 9.10644 53.6087 9.61692C54.0432 10.1275 54.6325 10.3828 55.3768 10.3828C55.9253 10.3828 56.4142 10.2416 56.8434 9.95916C57.2724 9.6768 57.582 9.29652 57.7722 8.81844V6.2682Z" fill="#1C2B33"/>
<path d="M12.96 0C11.4792 0 10.3218 1.11528 9.27408 2.532C7.83408 0.69852 6.63 0 5.1888 0C2.2512 0 0 3.82344 0 7.87032C0 10.4028 1.2252 12 3.2772 12C4.75416 12 5.8164 11.3036 7.70484 8.0028C7.70484 8.0028 8.49204 6.61272 9.03348 5.65512C9.22332 5.96148 9.42264 6.29112 9.63312 6.64548L10.5187 8.13516C12.2436 11.0218 13.2046 12 14.9461 12C16.9452 12 18.0578 10.381 18.0578 7.79592C18.058 3.55872 15.7561 0 12.96 0ZM6.26484 7.10892C4.73376 9.50892 4.2042 10.0469 3.35172 10.0469C2.47452 10.0469 1.95312 9.27672 1.95312 7.90344C1.95312 4.96548 3.41796 1.9614 5.1642 1.9614C6.1098 1.9614 6.9 2.5074 8.11044 4.24032C6.96108 6.00324 6.26484 7.10892 6.26484 7.10892ZM12.0432 6.80688L10.9844 5.04108C10.7182 4.60639 10.4428 4.17737 10.1584 3.75432C11.1126 2.28144 11.8997 1.54752 12.8359 1.54752C14.7806 1.54752 16.3366 4.41108 16.3366 7.92828C16.3366 9.26892 15.8975 10.0469 14.9876 10.0469C14.1155 10.0469 13.699 9.47088 12.0432 6.80688Z" fill="#0180FA"/>
<path d="M17.4703 4.2H15.6792C16.0935 5.24952 16.3366 6.53784 16.3366 7.92828C16.3366 9.26892 15.8975 10.0469 14.9877 10.0469C14.8188 10.0469 14.667 10.0253 14.52 9.97116V11.9784C14.6572 11.993 14.7989 12 14.9463 12C16.9453 12 18.058 10.381 18.058 7.79592C18.058 6.50748 17.8451 5.28192 17.4703 4.2Z" fill="url(#paint0_linear_44_79)"/>
<path d="M5.18895 0C5.21943 0 5.24979 0.00036 5.28003 0.00096V1.96416C5.24163 1.96236 5.20299 1.9614 5.16423 1.9614C3.46227 1.9614 2.02755 4.81524 1.95591 7.68H0.00170898C0.070829 3.7044 2.29719 0 5.18883 0H5.18895Z" fill="url(#paint1_linear_44_79)"/>
<path d="M5.18895 0C6.52719 0 7.66107 0.6024 8.96919 2.15652C9.33699 2.61588 9.78051 3.21312 10.2551 3.90336L10.2572 3.90636L10.2602 3.906C10.5084 4.27997 10.7499 4.6584 10.9845 5.04108L12.0432 6.80688C13.699 9.47088 14.1155 10.0469 14.9877 10.0469H15V11.9996C14.9822 11.9999 14.9643 12 14.9463 12C13.2047 12 12.2436 11.0218 10.5186 8.13516L9.63303 6.64548C9.54185 6.49178 9.45009 6.33842 9.35775 6.1854L9.36003 6.18C8.70003 5.1 8.28003 4.44 7.92003 3.96L7.91403 3.96456C6.81243 2.44896 6.05763 1.9614 5.16411 1.9614H5.16003V0H5.18895Z" fill="url(#paint2_linear_44_79)"/>
</g>
<defs>
<linearGradient id="paint0_linear_44_79" x1="15" y1="11.64" x2="19.2261" y2="6.8922" gradientUnits="userSpaceOnUse">
<stop offset="0.21" stop-color="#0278F1"/>
<stop offset="0.533" stop-color="#0180FA"/>
</linearGradient>
<linearGradient id="paint1_linear_44_79" x1="5.28003" y1="0.6" x2="2.87263e-05" y2="7.68" gradientUnits="userSpaceOnUse">
<stop offset="0.427" stop-color="#0165E0"/>
<stop offset="0.917" stop-color="#0180FA"/>
</linearGradient>
<linearGradient id="paint2_linear_44_79" x1="3.42003" y1="3.48" x2="16.2" y2="8.64" gradientUnits="userSpaceOnUse">
<stop stop-color="#0064E0"/>
<stop offset="0.656" stop-color="#0066E2"/>
<stop offset="1" stop-color="#0278F1"/>
</linearGradient>
<clipPath id="clip0_44_79">
<rect width="60" height="12" fill="white"/>
</clipPath>
</defs>
</svg>
